<?xml version="1.0" encoding="UTF-8" standalone="no"?>
<svg
   width="43.3494mm"
   height="43.3494mm"
   viewBox="0 0 512 512"
   version="1.1"
   id="FinancialFutureLogo"
   xmlns:inkscape="http://www.inkscape.org/namespaces/inkscape"
   xmlns:sodipodi="http://sodipodi.sourceforge.net/DTD/sodipodi-0.dtd"
   xmlns="http://www.w3.org/2000/svg"
   xmlns:svg="http://www.w3.org/2000/svg">
  <defs
     id="defs3416" />
  <sodipodi:namedview
     id="namedview3414"
     pagecolor="#ffffff"
     bordercolor="#666666"
     borderopacity="1.0"
     inkscape:pageshadow="2"
     inkscape:pageopacity="0.0"
     inkscape:pagecheckerboard="0"
     inkscape:document-units="mm"
     showgrid="false"
     inkscape:zoom="5.6568543"
     inkscape:cx="16.705398"
     inkscape:cy="64.788659"
     inkscape:window-width="2560"
     inkscape:window-height="1351"
     inkscape:window-x="2391"
     inkscape:window-y="152"
     inkscape:window-maximized="1"
     inkscape:current-layer="svg3412" />
  <path
     d="m 74,78.38 c 92.21,-96.64 262,-110.6 372.5,9.24 87.37,98.64 83.22,240.89 0.77,334.74 -107.93,119.24 -279.94,110.81 -376,8 C -53.82,287.21 16.81,134.16 74,78.38 Z"
     id="Main Circle"
     style="fill:#ffffff;stroke:none;stroke-opacity:1;stroke-width:1.00393543;stroke-miterlimit:4;stroke-dasharray:none"/>
  <path
     d="M 395,235 257.88,328.69 C 235.25,344.06 237.62,343.5 236,356.06 V 490.7 l 39.94,-26.08 c 0,0 -0.12,-100.62 0.06,-100.62 l 119,-82 z"
     id="Right Lower F"
     style="fill:#005cbf;fill-opacity:1" />
  <path
     d="m 394.94,157.06 -143.58,99.21 c -8.27,5.91 -15,8.18 -15.36,24.91 v 43.76 c 0.27637,-5.91241 10.16493,-16.20573 20.73,-24.3 l 138.24,-95.39 z"
     id="Right Upper F"
     style="fill:#005cbf;fill-opacity:1" />
  <path
     d="M 328.91,123.36 205,208.66 c -26.73,19.61 -34.82,19.25 -35,40.34 l 0.09,130.82 39.93,-26.3 0.07,-99.7 118.82,-82.18 z"
     id="Left Lower F"
     style="fill:#409cff;fill-opacity:1" />
  <path
     d="M 349.06,67.94 349,107.88 c 140.33,93.45 87.33,286.45 -52.96,318.9 L 296.09,462 C 496.59,418 527,159 349.06,67.94 Z"
     id="Right Inner Circle"
     style="fill:#005cbf;fill-opacity:1" />
  <path
     d="M 328.96,46.13 243.27003,105.25442 205,131.66 c -33.75,24.28 -33.81,19.59 -35,40.34 l 0.09,41.72 c 2.79195,-9.42765 5.49207,-13.11925 19.91,-23.14 L 328.96,94 Z"
     id="Left Upper F"
     style="stroke-width:1.00393543;stroke-miterlimit:4;stroke-dasharray:none;stroke:none;fill:#409cff;fill-opacity:1" />
  <path
     d="M 288.64,48.36 C 13,19.33 -48.33,398.67 216,462 c 0,0 -0.04,-35.91 -0.05,-35.96 C 27.47,381.08 37,104.5 242.09,81.36 Z"
     id="Left Inner Circle"
     style="fill:#409cff;fill-opacity:1" />
</svg>
